HIERARCHY
ROOT Hips
{
	OFFSET 0.00 0.00 0.00
	CHANNELS 6 Xposition Yposition Zposition Xrotation Yrotation Zrotation
	JOINT LeftUpLeg
	{
		OFFSET 3.34807 0.00000 0.00000
		CHANNELS 3 Xrotation Yrotation Zrotation
		JOINT LeftLeg
		{
			OFFSET 0.00000 -16.98552 0.00000
			CHANNELS 3 Xrotation Yrotation Zrotation
			JOINT LeftFoot
			{
				OFFSET 0.00000 -16.83686 0.00000
				CHANNELS 3 Xrotation Yrotation Zrotation
				JOINT LeftToeBase
				{
					OFFSET 0.00000 -1.59599 5.95633
					CHANNELS 3 Xrotation Yrotation Zrotation
					End Site
					{
						OFFSET 0.00000 0.00000 2.95275
					}
				}
			}
		}
	}
	JOINT RightUpLeg
	{
		OFFSET -3.34807 0.00000 0.00000
		CHANNELS 3 Xrotation Yrotation Zrotation
		JOINT RightLeg
		{
			OFFSET 0.00000 -16.98552 0.00000
			CHANNELS 3 Xrotation Yrotation Zrotation
			JOINT RightFoot
			{
				OFFSET 0.00000 -16.83686 0.00000
				CHANNELS 3 Xrotation Yrotation Zrotation
				JOINT RightToeBase
				{
					OFFSET 0.00000 -1.59599 5.95633
					CHANNELS 3 Xrotation Yrotation Zrotation
					End Site
					{
						OFFSET 0.00000 0.00000 2.95275
					}
				}
			}
		}
	}
	JOINT Spine
	{
		OFFSET 0.00000 0.03937 0.00000
		CHANNELS 3 Xrotation Yrotation Zrotation
		JOINT Spine1
		{
			OFFSET 0.00000 7.93124 0.00000
			CHANNELS 3 Xrotation Yrotation Zrotation
			JOINT Neck
			{
				OFFSET 0.00000 8.48368 0.00000
				CHANNELS 3 Xrotation Yrotation Zrotation
				JOINT Head
				{
					OFFSET 0.00000 6.65077 0.00000
					CHANNELS 3 Xrotation Yrotation Zrotation
					End Site
					{
						OFFSET 0.00000 4.52755 0.00000
					}
				}
			}
			JOINT LeftShoulder
			{
				OFFSET 0.00000 8.48368 0.00000
				CHANNELS 3 Xrotation Yrotation Zrotation
				JOINT LeftArm
				{
					OFFSET 7.74502 -0.00003 0.00000
					CHANNELS 3 Xrotation Yrotation Zrotation
					JOINT LeftForeArm
					{
						OFFSET 12.49824 -0.00005 0.00000
						CHANNELS 3 Xrotation Yrotation Zrotation
						JOINT LeftHand
						{
							OFFSET 9.88337 -0.00004 0.00000
							CHANNELS 3 Xrotation Yrotation Zrotation
							JOINT LeftHandThumb
							{
								OFFSET 0.00000 0.00000 0.00000
								CHANNELS 3 Xrotation Yrotation Zrotation
								End Site
								{
									OFFSET 0.00000 0.00000 3.93700
								}
							}
							JOINT L_Wrist_End
							{
								OFFSET 3.93700 -0.00001 0.00000
								CHANNELS 3 Xrotation Yrotation Zrotation
							}
						}
					}
				}
			}
			JOINT RightShoulder
			{
				OFFSET 0.00000 8.48368 0.00000
				CHANNELS 3 Xrotation Yrotation Zrotation
				JOINT RightArm
				{
					OFFSET -7.74502 -0.00003 0.00000
					CHANNELS 3 Xrotation Yrotation Zrotation
					JOINT RightForeArm
					{
						OFFSET -12.49824 -0.00005 0.00000
						CHANNELS 3 Xrotation Yrotation Zrotation
						JOINT RightHand
						{
							OFFSET -9.88337 -0.00004 0.00000
							CHANNELS 3 Xrotation Yrotation Zrotation
							JOINT RightHandThumb
							{
								OFFSET 0.00000 0.00000 0.00000
								CHANNELS 3 Xrotation Yrotation Zrotation
								End Site
								{
									OFFSET 0.00000 0.00000 3.93700
								}
							}
							JOINT R_Wrist_End
							{
								OFFSET -5.39369 -0.00002 0.00000
								CHANNELS 3 Xrotation Yrotation Zrotation
							}
						}
					}
				}
			}
		}
	}
}
MOTION
Frames: 11
Frame Time: 0.033332
 37.2928 27.4199 -9.3185 -52.3226 82.9283 50.7980 -51.1241 8.8827 16.2115 76.8511 -0.0000 0.0000 -22.6405 1.6113 -7.4422 13.0986 0.0000 -0.0000 -50.5010 -8.6192 -3.1991 75.9078 -0.0000 0.0000 -19.6787 -9.1835 -2.9587 20.0546 0.0000 0.0000 5.8811 -4.1895 -0.2918 21.2845 -3.7333 0.3272 -9.2385 10.0746 4.6274 4.6100 -9.6863 -3.3364 -20.9839 5.3390 37.3389 -73.7817 -15.8302 -69.7358 -0.0004 -62.1012 -0.0002 -36.7380 -51.4261 53.9098 -0.0000 0.0000 -0.0000 -0.0000 0.0000 -0.0000 4.5810 -6.9040 -22.6256 -106.8994 20.8374 77.3153 -0.0003 57.0707 0.0002 153.1461 -31.9112 8.4401 -0.0000 0.0000 -0.0000 -0.0000 0.0000 -0.0000
 38.7791 26.3508 -9.3967 -48.4688 81.0559 47.2582 -51.4036 6.9572 15.0666 85.5157 -0.0000 0.0000 -26.2715 6.8082 -8.2904 9.6243 -0.0000 0.0000 -52.8448 -6.0205 -1.7788 85.9008 -0.0000 0.0000 -20.5801 -12.1630 -0.5630 14.7330 -0.0000 0.0000 5.0148 -3.8884 -0.7843 25.0857 -3.3169 0.7043 -9.8961 10.4473 4.3565 3.0627 -8.6713 -4.5914 -15.5939 9.6717 33.1917 -70.3575 -15.2608 -73.9986 -0.0005 -68.3958 -0.0004 -31.7766 -50.8675 54.3741 -0.0000 0.0000 -0.0000 -0.0000 0.0000 -0.0000 7.9102 -6.4692 -21.3233 -101.4461 18.5594 84.4105 -0.0004 60.8188 0.0002 155.5295 -30.8791 9.5059 -0.0000 0.0000 -0.0000 -0.0000 0.0000 -0.0000
 39.9814 26.0855 -9.4495 -42.5018 80.7864 41.4787 -50.9518 7.9125 14.9678 88.4571 -0.0000 0.0000 -29.5764 9.2139 -6.6582 9.6645 -0.0000 0.0000 -53.3345 -6.3555 -2.0798 89.7910 -0.0000 0.0000 -21.8636 -13.0959 1.4030 12.7704 0.0000 0.0000 4.5682 -3.6349 -0.8414 26.6255 -3.0403 0.7951 -9.9499 11.3336 4.8542 1.3273 -8.2657 -6.1011 -14.2941 10.9236 31.1660 -58.5111 -18.3439 -78.1096 -0.0006 -70.0219 -0.0004 -36.6522 -45.3484 60.5031 -0.0000 0.0000 -0.0000 -0.0000 0.0000 -0.0000 8.1017 -5.6972 -20.2315 -89.8810 21.4552 89.6895 -0.0003 57.8441 0.0002 150.8645 -30.4081 7.3885 -0.0000 0.0000 -0.0000 -0.0000 0.0000 -0.0000
 40.8402 26.4596 -9.4979 -32.8604 81.5549 31.7241 -50.2902 8.7059 15.5664 87.7687 -0.0000 0.0000 -30.8630 8.6174 -7.4537 9.4037 0.0000 0.0000 -52.6930 -6.4613 -2.4260 89.3686 -0.0000 0.0000 -22.8309 -12.1691 1.9503 12.3454 0.0000 0.0000 4.3022 -3.6451 -0.6491 27.5513 -2.8584 1.1010 -10.1650 11.8218 4.7733 -0.6709 -7.5718 -6.5993 -11.4154 13.2833 29.2203 -49.2393 -23.5936 -80.1559 -0.0004 -64.1621 -0.0003 -50.8130 -46.3775 67.9425 -0.0000 -0.0000 0.0000 -0.0000 -0.0000 0.0000 12.7456 -6.5492 -18.5268 -83.1406 27.5490 90.9514 -0.0003 51.7953 0.0001 150.4697 -29.7634 2.5957 -0.0000 -0.0000 0.0000 -0.0000 -0.0000 0.0000
 41.6731 27.2992 -9.5162 -18.9543 81.8600 18.1587 -47.9744 9.9044 15.9223 84.0284 -0.0000 0.0000 -31.6114 6.8785 -9.8101 9.6672 -0.0000 0.0000 -50.8097 -5.7430 -2.6116 86.2832 -0.0000 0.0000 -23.1996 -10.9326 4.8319 12.6923 0.0000 0.0000 4.3922 -3.4841 -0.8078 27.6296 -2.6904 1.1347 -10.5575 11.7969 4.4968 -1.4088 -6.6644 -6.4214 -9.8221 15.1482 27.4564 -38.8831 -27.5557 -80.8360 -0.0003 -55.6848 -0.0002 -43.6946 -38.4534 61.3185 -0.0000 0.0000 -0.0000 -0.0000 0.0000 -0.0000 15.0693 -7.2071 -16.5895 -73.3522 33.0711 90.2297 -0.0002 46.0406 0.0001 152.6925 -31.9241 -1.7048 -0.0000 0.0000 -0.0000 -0.0000 0.0000 -0.0000
 42.3291 28.4998 -9.5351 0.7190 82.1020 -1.4382 -46.5510 10.8719 15.8715 78.8744 -0.0000 0.0000 -29.4452 5.6687 -12.6384 7.9552 -0.0000 0.0000 -50.0285 -5.6056 -2.7490 82.2457 -0.0000 0.0000 -19.7334 -9.7979 5.8110 10.7163 -0.0000 0.0000 4.6861 -3.6595 -0.7025 26.9758 -2.9035 1.1338 -10.7838 12.1622 4.7285 -1.9513 -6.1087 -7.1969 -8.6527 16.5854 26.0637 -27.3414 -27.9332 -80.5255 -0.0002 -47.9184 -0.0001 -38.2245 -38.9106 55.9846 -0.0000 0.0000 -0.0000 -0.0000 0.0000 -0.0000 16.8828 -8.7656 -14.8703 -63.9740 38.1126 88.8539 -0.0002 39.9561 0.0001 150.0985 -31.6400 -4.0692 -0.0000 -0.0000 0.0000 -0.0000 -0.0000 0.0000
 42.8269 29.9114 -9.5044 22.8318 81.6884 -23.3758 -46.2731 11.7632 15.7918 73.6726 -0.0000 0.0000 -23.4788 3.7585 -14.2702 3.8754 -0.0000 0.0000 -49.1691 -5.6713 -2.9561 76.6482 -0.0000 0.0000 -15.5463 -8.8311 7.0102 9.5283 -0.0000 -0.0000 4.7078 -3.9473 -0.8105 26.8024 -3.3969 0.9322 -10.9498 12.3121 5.0384 -2.1004 -5.9022 -7.2608 -7.2415 18.5789 24.7118 -17.2499 -27.8276 -79.1298 -0.0002 -41.6164 -0.0001 -36.7073 -39.3047 58.9257 -0.0000 0.0000 -0.0000 -0.0000 0.0000 -0.0000 18.0059 -10.3065 -13.7036 -54.5869 41.2483 86.5274 -0.0001 33.6035 0.0000 147.9772 -29.6993 -7.6318 -0.0000 -0.0000 0.0000 -0.0000 -0.0000 0.0000
 43.1744 31.3438 -9.4131 44.2501 80.2139 -44.8750 -48.1790 12.0255 16.4181 69.9464 -0.0000 0.0000 -14.4237 0.6381 -16.5337 -1.6608 0.0000 -0.0000 -48.5271 -6.3947 -3.1776 70.0693 -0.0000 0.0000 -11.1135 -7.4573 7.6406 8.3900 -0.0000 0.0000 4.5182 -4.1217 -0.8732 26.4290 -3.7870 0.7088 -10.3387 11.9146 4.9505 -1.9616 -6.2314 -6.5159 -6.7493 19.6152 24.6959 -7.5050 -29.5549 -77.8303 -0.0001 -34.0996 -0.0000 -33.5940 -39.7560 54.6131 -0.0000 0.0000 -0.0000 -0.0000 0.0000 -0.0000 17.9752 -11.5491 -13.7346 -44.4271 42.5310 84.5295 -0.0001 27.1247 0.0000 147.5835 -29.0605 -9.3268 -0.0000 0.0000 -0.0000 -0.0000 0.0000 -0.0000
 43.3575 32.6607 -9.3253 60.7565 77.6253 -61.5337 -51.3208 11.7317 16.9452 66.5374 -0.0000 0.0000 -7.5760 -2.6994 -17.9948 0.9887 0.0000 0.0000 -49.4059 -7.9653 -3.8749 64.3483 -0.0000 0.0000 -4.8767 -5.7523 8.5239 5.7595 -0.0000 -0.0000 4.2619 -4.2007 -0.8438 26.4197 -4.0709 0.4680 -10.4366 11.3828 5.2209 -1.0520 -6.7307 -6.3672 -5.9499 20.3032 24.8084 1.2022 -32.5336 -76.1788 -0.0001 -28.1816 -0.0000 -33.2378 -36.3143 47.1236 -0.0000 0.0000 -0.0000 -0.0000 0.0000 -0.0000 18.9279 -13.1480 -13.8251 -36.2463 42.8354 82.8580 -0.0001 21.3794 0.0000 145.8589 -26.8493 -10.6225 -0.0000 0.0000 -0.0000 -0.0000 0.0000 -0.0000
 43.4271 33.6993 -9.3252 69.3415 73.6959 -70.3958 -54.4672 11.6385 17.2464 61.7101 -0.0000 0.0000 -9.0479 -1.2687 -18.3792 -0.1098 0.0000 -0.0000 -52.4236 -10.1348 -4.8377 60.5172 -0.0000 0.0000 1.3447 -3.6499 10.0522 6.7342 0.0000 0.0000 3.7309 -3.9395 -0.6215 27.1233 -4.1605 -0.0563 -10.6382 11.4748 5.9917 -2.5156 -7.6671 -7.3559 -5.1476 20.9534 24.9164 9.6661 -35.0646 -74.6945 -0.0001 -25.2514 -0.0000 -32.9642 -32.7162 41.9752 -0.0000 0.0000 -0.0000 -0.0000 0.0000 -0.0000 19.0138 -14.6733 -14.2853 -27.8945 42.9126 81.0468 -0.0001 17.3898 0.0000 148.8396 -23.6658 -11.7648 -0.0000 0.0000 -0.0000 -0.0000 0.0000 -0.0000
 43.4059 34.3536 -9.3364 72.9427 69.1197 -74.4006 -57.9397 11.7367 17.9575 55.8800 -0.0000 0.0000 -12.0403 -0.7483 -19.4839 -0.3118 0.0000 0.0000 -55.8205 -12.0707 -5.2249 56.2334 -0.0000 0.0000 0.9787 -4.0707 12.2570 11.5411 0.0000 0.0000 3.2170 -3.5720 -0.4379 28.1075 -4.2795 -0.7848 -10.8057 12.0105 6.7163 -5.8873 -8.3527 -8.3756 -3.6334 22.3709 24.6745 17.7455 -37.7400 -73.0642 -0.0001 -24.5634 -0.0000 -32.9059 -31.7837 39.0627 -0.0000 -0.0000 0.0000 -0.0000 -0.0000 0.0000 19.9718 -16.1300 -14.4717 -20.2147 44.0825 78.6658 -0.0001 14.7441 0.0000 149.2434 -20.8290 -13.7992 -0.0000 0.0000 -0.0000 -0.0000 0.0000 -0.0000
